<?xml version="1.0" encoding="UTF-8" standalone="no"?><!DOCTYPE svg PUBLIC "-//W3C//DTD SVG 1.1//EN" "http://www.w3.org/Graphics/SVG/1.1/DTD/svg11.dtd"><svg width="100%" height="100%" viewBox="0 0 448 412" version="1.1" xmlns="http://www.w3.org/2000/svg" xmlns:xlink="http://www.w3.org/1999/xlink" xml:space="preserve" xmlns:serif="http://www.serif.com/" style="fill-rule:evenodd;clip-rule:evenodd;stroke-linecap:round;stroke-linejoin:round;stroke-miterlimit:1.5;"><path d="M166.762,7.77c23.307,12.004 13.696,37.08 34.762,40.974c18.037,3.335 31.849,-6.882 48.26,2.417c15.04,8.522 18.13,20.476 27.601,32.451c9.24,11.684 23.057,20.37 38.428,24.705c19.229,5.423 40.05,-1.55 58.603,-4.405c20.317,-3.127 44.01,-3.109 61.564,7.802" style="fill:none;stroke:url(#_Linear1);stroke-width:15px;"/><path d="M4.335,281.988c-1.091,-2.745 -0.971,-7.83 -0.445,-10.643c4.576,-24.487 5.617,-27.632 13.159,-51.359c13.486,-42.429 18.698,-58.392 26.27,-80.668c4.612,-13.568 10.1,-29.479 18.866,-55.14c5.294,-15.495 20.549,-36.734 31.164,-38.488c5.661,-0.935 16.067,-1.466 21.577,0.249c11.719,3.646 20.72,13.161 25.415,24.317c1.015,2.411 1.829,4.9 2.425,7.422c7.112,19.633 17.002,47.306 22.901,67.352c6.178,20.992 11.389,42.261 17.576,63.25c7.012,23.788 28.4,67.453 18.42,72.651c0,0 -31.273,18.415 -36.586,-0.051c-10.302,-35.807 -16.485,-58.46 -25.211,-94.677c-2.048,-8.504 -4.476,-16.942 -5.875,-25.577c0,0 -0.219,-13.973 -24.647,-7.947c-4.743,1.521 -5.684,7.467 -6.417,11.496c-2.286,12.552 -4.563,25.112 -6.387,37.74c-4.429,30.661 -1.839,75.378 -13.123,92.05c-10.308,15.228 -41.405,9.976 -54.586,7.98c-10.413,-1.577 -20.88,-2.94 -24.496,-19.957Zm92.182,-227.029c6.037,-3.386 17.383,-3.18 24.169,20.431c1.752,6.099 2.593,11.905 4.458,18.507c3.144,11.127 8.007,31.653 -0.164,37.502c-1.207,0.864 -2.889,2.402 -4.23,2.698c-2.055,0.453 -5.136,1.248 -7.186,1.712c-4.399,0.994 -13.186,-1.938 -15.35,-6.759c-3.895,-8.677 -6.622,-34.929 -8.022,-45.303c-0.755,-5.596 -1.883,-16.985 -0.437,-20.636c1.446,-3.65 3.317,-6.22 6.762,-8.152Z" style="fill:url(#_Radial2);stroke:#00f;stroke-opacity:0;stroke-width:7px;"/><path d="M259.268,380.548c1.994,10.428 5.067,20.013 5.545,21.145c3.5,8.296 10.715,6.27 15.807,5.668c11.257,-1.33 22.462,-3.33 33.613,-5.638c12.793,-2.647 25.51,-5.839 38.187,-9.22c12.484,-3.329 25.835,-6.967 36.051,-17.107c19.421,-19.276 16.29,-53.18 14.219,-80.073c-1.915,-24.87 -8.257,-51.058 -19.221,-73.055c-12.594,-25.267 -26.523,-38.097 -47.106,-49.911c-16.391,-9.408 -33.29,-15.422 -52.134,-19.99c-6.78,-1.644 -13.102,-2.945 -20.717,-1.214c-0.996,0.227 -9.252,0.902 -13.203,9.935c-3.541,8.096 -3.078,23.282 -3.144,29.217c-0.14,12.382 -0.434,24.764 -0.95,37.132c-0.902,21.575 0.09,42.714 1.873,65.068c2.078,26.06 1.163,25.934 5.15,51.815c3.024,19.631 2.785,19.249 6.03,36.228Zm25.837,-205.543c-1.685,15.517 -0.996,11.853 -1.666,27.415c-0.328,7.608 0.556,15.805 0.77,23.417c0.68,24.184 0.38,31.277 2.209,55.356c0,0 0.262,24.295 4.501,32.953c3.366,6.876 5.626,10.066 9.857,12.964c5.809,3.979 14.878,5.295 19.258,4.496c17.118,-3.124 22.33,-4.457 36.582,-8.983c3.132,-0.994 10.871,-5.514 13.262,-7.847c8.1,-7.904 6.267,-25.662 4.96,-35.068c-3.198,-23.013 -6.956,-47.174 -19.602,-67.841c-2.629,-4.296 -5.876,-8.289 -9.414,-11.998c-6.273,-6.578 -13.09,-12.71 -19.943,-18.782c-9.644,-8.545 -39.267,-19.956 -40.774,-6.082Z" style="fill:url(#_Radial3);stroke:#00f;stroke-opacity:0;stroke-width:7px;"/><defs><linearGradient id="_Linear1" x1="0" y1="0" x2="1" y2="0" gradientUnits="userSpaceOnUse" gradientTransform="matrix(272.663,9.99952,-3.53658,96.4343,164.994,55.987)"><stop offset="0" style="stop-color:#00f;stop-opacity:1"/><stop offset="1" style="stop-color:#f8e1ff;stop-opacity:1"/></linearGradient><radialGradient id="_Radial2" cx="0" cy="0" r="1" gradientUnits="userSpaceOnUse" gradientTransform="matrix(411.525,0,0,411.525,3.5,214.103)"><stop offset="0" style="stop-color:#00f;stop-opacity:1"/><stop offset="1" style="stop-color:#7b61e2;stop-opacity:1"/></radialGradient><radialGradient id="_Radial3" cx="0" cy="0" r="1" gradientUnits="userSpaceOnUse" gradientTransform="matrix(411.525,0,0,411.525,-7.28237,238.735)"><stop offset="0" style="stop-color:#00f;stop-opacity:1"/><stop offset="1" style="stop-color:#7b61e2;stop-opacity:1"/></radialGradient></defs></svg>