<?xml version="1.0" encoding="UTF-8" standalone="no"?><!DOCTYPE svg PUBLIC "-//W3C//DTD SVG 1.1//EN" "http://www.w3.org/Graphics/SVG/1.1/DTD/svg11.dtd"><svg width="100%" height="100%" viewBox="0 0 466 414" version="1.1" xmlns="http://www.w3.org/2000/svg" xmlns:xlink="http://www.w3.org/1999/xlink" xml:space="preserve" xmlns:serif="http://www.serif.com/" style="fill-rule:evenodd;clip-rule:evenodd;stroke-linejoin:round;stroke-miterlimit:1.41421;"><path d="M415.107,48.31c-30.869,-3.453 -108.959,-2.194 -186.065,-2.064c-71.509,0.121 -142.287,-1.139 -170.915,2.064c-11.168,1.249 -11.168,38.686 0,39.936c28.848,3.227 99.854,0.249 171.934,0.347c76.579,0.104 154.397,3.081 185.046,-0.347c11.168,-1.25 11.168,-38.687 0,-39.936Z" style="fill:#ff4c00;"/><path d="M413.052,193.968c-30.802,-4.001 -108.903,-4.127 -185.998,-5.365c-71.5,-1.148 -142.245,-3.663 -170.925,-0.969c-11.188,1.051 -11.853,38.482 -0.709,39.93c28.787,3.738 99.834,2.021 171.901,3.397c76.566,1.463 154.318,5.82 185.023,2.936c11.188,-1.051 11.852,-38.482 0.708,-39.929Z" style="fill:#ff4c00;"/><path d="M416.987,331.775c-30.912,-3.044 -108.978,-0.748 -186.075,0.405c-71.502,1.069 -142.29,0.748 -170.873,4.331c-11.15,1.397 -10.654,38.831 0.53,39.932c28.888,2.844 99.848,-1.075 171.923,-1.934c76.574,-0.912 154.425,1.033 185.025,-2.802c11.15,-1.397 10.654,-38.831 -0.53,-39.932Z" style="fill:#ff4c00;"/></svg>