<?xml version="1.0" encoding="UTF-8" standalone="no"?><!DOCTYPE svg PUBLIC "-//W3C//DTD SVG 1.1//EN" "http://www.w3.org/Graphics/SVG/1.1/DTD/svg11.dtd"><svg width="100%" height="100%" viewBox="0 0 650 522" version="1.1" xmlns="http://www.w3.org/2000/svg" xmlns:xlink="http://www.w3.org/1999/xlink" xml:space="preserve" xmlns:serif="http://www.serif.com/" style="fill-rule:evenodd;clip-rule:evenodd;stroke-linejoin:round;stroke-miterlimit:1.41421;"><path d="M506.933,216.647c0,0 25.573,-26.813 33.364,-59.604c3.26,-13.719 -1.585,-34.51 -14.974,-45.125c-9.511,-7.54 -31.182,-5.233 -38.693,-8.126c5.05,-28.315 -3.12,-54.45 -21.158,-63.919c-18.233,-9.571 -40.111,2.191 -64.841,15.482c-11.707,-14.675 -17.206,-34.219 -29.693,-38.499c-15.938,-5.464 -33.706,-1.155 -50.662,9.877c-32.512,21.153 -100.686,160.388 -100.686,160.388c-3.468,-24.379 -16.811,-72.391 -40.587,-71.787c-37.175,0.944 -46.616,24.017 -55.683,50.861c-14.468,42.836 -42.85,146.553 -10.68,205.857c32.171,59.303 129.739,131.493 184.008,137.736c54.268,6.242 101.775,-35.274 128.307,-64.119c10.857,-11.804 31.262,-29.739 40.603,-42.571c18.299,-25.136 73.36,-79.852 81.378,-112.612c7.491,-30.606 -4.386,-54.896 -40.003,-73.839Zm-35.142,138.89c-12.558,13.449 -55.931,61.331 -58.29,63.389c-26.008,22.696 -78.953,70.237 -116.068,65.038c-43.033,-6.028 -140.209,-75.251 -165.985,-129.341c-25.775,-54.091 -5.742,-143.959 4.61,-176.062c2.384,-7.393 13.637,-44.501 27.41,-48.243c28.977,-7.873 36.268,26.794 37.604,31.3c4.663,15.724 2.91,39.736 9.109,45.973c6.198,6.238 13.704,-2.181 25.759,-21.916c0,0 68.444,-117.5 95.893,-140.791c6.163,-5.23 19.154,-11.226 28.798,-7.162c12.12,5.107 20.242,22.15 17.439,31.88c-2.848,9.888 -18.196,30.745 -35.116,53.242c-24.781,32.948 -30.08,43.274 -30.08,43.274c-5.495,7.448 0.854,18.128 5.3,20.521c4.447,2.394 15.883,1.288 21.377,-6.161c0,0 5.177,-13.932 32.856,-52.581c20.204,-28.21 39.418,-57.39 50.181,-65.684c6.37,-4.91 22.158,-7.963 31.889,-4.006c12.663,5.149 18.488,19.463 14.962,29.311c-10.789,30.132 -88.928,128.268 -88.928,128.268c-5.495,7.449 0.805,15.388 5.248,17.871c4.443,2.483 16.874,3.284 21.41,-2.972c0,0 53.139,-78.549 71.158,-98.33c7.843,-8.611 23.369,-9.185 31.277,-1.528c8.963,8.678 9.643,26.799 5.692,35.162c-11.462,24.263 -73.401,101.865 -73.401,101.865c-5.495,7.449 -0.276,18.687 3.048,20.479c7.277,3.924 12.454,2.825 17.949,-4.624c0,0 17.684,-27.772 28.827,-37.262c14.192,-12.088 40.639,18.525 34.018,33.855c-9.51,22.018 -34.009,53.88 -53.946,75.235Z" style="fill:#0d28f2;fill-rule:nonzero;stroke:#0d28f2;stroke-width:20px;"/><path d="M229.184,274.777c34.541,28.107 35.929,54.7 17.434,112.534" style="fill:none;stroke:#0d28f2;stroke-width:35px;stroke-linecap:round;stroke-miterlimit:1.5;"/><path d="M22.306,168.017c0,0 -12.348,-100.311 98.86,-139.89" style="fill:none;stroke:#0d28f2;stroke-width:35px;stroke-linecap:round;stroke-miterlimit:1.5;"/><path d="M513.288,496.557c0,0 103.616,-37.388 106.442,-111.141" style="fill:none;stroke:#0d28f2;stroke-width:35px;stroke-linecap:round;stroke-miterlimit:1.5;"/></svg>